<?xml version="1.0" encoding="UTF-8" standalone="no"?>
<!-- Generator: Adobe Illustrator 27.5.0, SVG Export Plug-In . SVG Version: 6.00 Build 0)  -->

<svg
   version="1.1"
   id="Golden_Ratio"
   x="0px"
   y="0px"
   viewBox="0 0 364.13384 476.21649"
   xml:space="preserve"
   sodipodi:docname="Logoonly(Stevie).svg"
   inkscape:version="1.3.2 (091e20e, 2023-11-25)"
   width="364.13385"
   height="476.21649"
   xmlns:inkscape="http://www.inkscape.org/namespaces/inkscape"
   xmlns:sodipodi="http://sodipodi.sourceforge.net/DTD/sodipodi-0.dtd"
   xmlns="http://www.w3.org/2000/svg"
   xmlns:svg="http://www.w3.org/2000/svg"><defs
   id="defs12" /><sodipodi:namedview
   id="namedview12"
   pagecolor="#ffffff"
   bordercolor="#000000"
   borderopacity="0.25"
   inkscape:showpageshadow="2"
   inkscape:pageopacity="0.0"
   inkscape:pagecheckerboard="0"
   inkscape:deskcolor="#d1d1d1"
   inkscape:zoom="0.22715312"
   inkscape:cx="486.45601"
   inkscape:cy="583.30699"
   inkscape:window-width="1440"
   inkscape:window-height="847"
   inkscape:window-x="0"
   inkscape:window-y="25"
   inkscape:window-maximized="0"
   inkscape:current-layer="Golden_Ratio" />






<rect
   style="display:none;fill:#f77f00;fill-opacity:1;stroke-width:5;stroke-linejoin:round;paint-order:stroke fill markers"
   id="rect1"
   width="1614.8052"
   height="914.50702"
   x="-523.58624"
   y="-77.190659" /><g
   id="g1"
   transform="translate(-1186.1307,-91.823773)"
   style="display:none"><path
     id="rect11"
     style="fill:none;stroke:#0071bc;stroke-width:2.56651;stroke-linecap:round;stroke-linejoin:round;stroke-miterlimit:10"
     d="m 1197.6918,264.17279 11.4112,6.58837 -101.4792,175.76725 -11.4111,-6.58833 z" /><circle
     style="fill:none;stroke:#000000;stroke-width:3;stroke-linecap:round;stroke-linejoin:round;stroke-miterlimit:10;stroke-opacity:1"
     cx="1090.0944"
     cy="438.0629"
     r="212.5"
     id="circle12" /><circle
     style="fill:none;stroke:#000000;stroke-width:3;stroke-linecap:round;stroke-linejoin:round;stroke-miterlimit:10;stroke-opacity:1"
     cx="1111.89"
     cy="358.96539"
     r="131"
     id="circle13" /><circle
     style="fill:none;stroke:#000000;stroke-width:3;stroke-linecap:round;stroke-linejoin:round;stroke-miterlimit:10;stroke-opacity:1"
     cx="1111.89"
     cy="435.58832"
     r="212.5"
     id="circle16" /><circle
     style="fill:none;stroke:#000000;stroke-width:3;stroke-linecap:round;stroke-linejoin:round;stroke-miterlimit:10;stroke-opacity:1"
     cx="1111.89"
     cy="459.58832"
     r="212.5"
     id="circle17" /><rect
     x="997.8941"
     y="-495.43695"
     style="fill:none;fill-opacity:1;stroke:#0071bc;stroke-width:1.59528;stroke-linecap:round;stroke-linejoin:round;stroke-miterlimit:10;stroke-opacity:1"
     width="101.3969"
     height="27.851328"
     id="rect19"
     transform="rotate(45)" /></g><path
   d="M 1.0002197e-4,236.99642 C 0.07530002,369.61586 109.71546,476.12996 242.20593,476.21647 c 13.96096,-0.13647 27.88433,-1.46516 41.61359,-3.97087 -5.57509,0.58662 -11.16918,0.98192 -16.77195,1.1851 C 150.87117,473.1508 59.98341,385.11636 56.2437,239.79496 59.35645,78.681586 210.7866,-6.3977326 338.70302,32.7975 c 9.98999,3.061019 14.55767,16.004976 9.38498,32.506976 -4.11188,11.21499 -9.48029,21.94082 -16.00524,31.97766 l -64.3897,110.152584 -29.16408,-27.97879 c -13.27461,-12.73511 -31.99745,-18.28641 -50.17882,-14.87796 l -7.51497,1.40882 70.42663,69.55849 4.15624,4.10501 16.43126,-28.11056 85.45411,-146.190064 c 2.24924,-3.84789 4.09059,-7.91468 5.4948,-12.1358 1.26063,-3.78954 2.47177,-12.348785 -0.58005,-17.831301 -1.22903,-2.207889 -2.83158,-4.222323 -4.7642,-5.947063 -0.34844,-0.295871 -0.70634,-0.580254 -1.05739,-0.87288 C 278.16797,-36.639215 0.61082002,0.54152441 2.197055e-8,236.99642 Z"
   style="display:inline;fill:#f77f00;fill-opacity:1;stroke-width:3.39823;stroke-linecap:round;stroke-linejoin:round;stroke-miterlimit:10"
   id="path17"
   sodipodi:nodetypes="ccccccccccccccccccccsc"
   inkscape:export-filename="path17(orange).png"
   inkscape:export-xdpi="300"
   inkscape:export-ydpi="300" /></svg>
