<?xml version="1.0" encoding="UTF-8" standalone="no"?>
<!-- Generator: Adobe Illustrator 27.5.0, SVG Export Plug-In . SVG Version: 6.00 Build 0)  -->

<svg
   version="1.1"
   id="Golden_Ratio"
   x="0px"
   y="0px"
   viewBox="0 0 1437.134 810.98505"
   xml:space="preserve"
   sodipodi:docname="Logo(Stevie).svg"
   inkscape:version="1.3.2 (091e20e, 2023-11-25)"
   width="1437.134"
   height="810.98505"
   xmlns:inkscape="http://www.inkscape.org/namespaces/inkscape"
   xmlns:sodipodi="http://sodipodi.sourceforge.net/DTD/sodipodi-0.dtd"
   xmlns="http://www.w3.org/2000/svg"
   xmlns:svg="http://www.w3.org/2000/svg"><defs
   id="defs12"><inkscape:path-effect
   effect="offset"
   id="path-effect13"
   is_visible="true"
   lpeversion="1.2"
   linejoin_type="miter"
   unit="mm"
   offset="-1.3"
   miter_limit="4"
   attempt_force_join="false"
   update_on_knot_move="true" /><inkscape:path-effect
   effect="offset"
   id="path-effect11"
   is_visible="true"
   lpeversion="1.2"
   linejoin_type="miter"
   unit="mm"
   offset="-1.3"
   miter_limit="4"
   attempt_force_join="false"
   update_on_knot_move="true" /><inkscape:path-effect
   effect="offset"
   id="path-effect9"
   is_visible="true"
   lpeversion="1.2"
   linejoin_type="miter"
   unit="mm"
   offset="-1.3"
   miter_limit="4"
   attempt_force_join="false"
   update_on_knot_move="true" /><inkscape:path-effect
   effect="offset"
   id="path-effect7"
   is_visible="true"
   lpeversion="1.2"
   linejoin_type="miter"
   unit="mm"
   offset="-1.3"
   miter_limit="4"
   attempt_force_join="false"
   update_on_knot_move="true" /><inkscape:path-effect
   effect="offset"
   id="path-effect5"
   is_visible="true"
   lpeversion="1.2"
   linejoin_type="miter"
   unit="mm"
   offset="-1.3"
   miter_limit="4"
   attempt_force_join="false"
   update_on_knot_move="true" /><inkscape:path-effect
   effect="offset"
   id="path-effect3"
   is_visible="true"
   lpeversion="1.2"
   linejoin_type="miter"
   unit="mm"
   offset="-1.3165278"
   miter_limit="4"
   attempt_force_join="false"
   update_on_knot_move="true" /><inkscape:path-effect
   effect="offset"
   id="path-effect1"
   is_visible="true"
   lpeversion="1.2"
   linejoin_type="miter"
   unit="mm"
   offset="-1.3"
   miter_limit="4"
   attempt_force_join="false"
   update_on_knot_move="true" /><inkscape:path-effect
   effect="fillet_chamfer"
   id="path-effect17"
   is_visible="true"
   lpeversion="1"
   nodesatellites_param="F,0,0,1,0,0,0,1 @ F,0,0,1,0,0,0,1 @ F,0,0,1,0,0,0,1 @ F,0,0,1,0,0,0,1 @ F,0,0,1,0,31.246185,0,1 @ F,0,0,1,0,0,0,1 @ F,0,0,1,0,27.784985,0,1 @ F,0,0,1,0,22.632399,0,1 @ F,0,0,1,0,0,0,1 @ F,0,0,1,0,25.90024,0,1 @ F,0,0,1,0,0,0,1 @ F,0,0,1,0,0,0,1 @ F,0,0,1,0,0,0,1 @ F,0,0,1,0,0,0,1 @ F,0,0,1,0,5.9360582,0,1 @ F,0,0,1,0,10.16902,0,1 @ F,0,0,1,0,0,0,1 @ F,0,0,1,0,0,0,1"
   radius="0"
   unit="px"
   method="auto"
   mode="F"
   chamfer_steps="1"
   flexible="false"
   use_knot_distance="true"
   apply_no_radius="true"
   apply_with_radius="true"
   only_selected="false"
   hide_knots="false" />
	
		
	
		
	
		
	
		
	
		
	
		
	
		
	
		
	
</defs><sodipodi:namedview
   id="namedview12"
   pagecolor="#ffffff"
   bordercolor="#000000"
   borderopacity="0.25"
   inkscape:showpageshadow="2"
   inkscape:pageopacity="0.0"
   inkscape:pagecheckerboard="0"
   inkscape:deskcolor="#d1d1d1"
   inkscape:zoom="0.22715312"
   inkscape:cx="486.45601"
   inkscape:cy="583.30699"
   inkscape:window-width="1440"
   inkscape:window-height="847"
   inkscape:window-x="0"
   inkscape:window-y="25"
   inkscape:window-maximized="0"
   inkscape:current-layer="Golden_Ratio"><inkscape:page
     x="0"
     y="0"
     width="1437.134"
     height="810.98505"
     id="page1"
     margin="0"
     bleed="0" /></sodipodi:namedview>






<rect
   style="display:none;fill:#f77f00;fill-opacity:1;stroke-width:5;stroke-linejoin:round;paint-order:stroke fill markers"
   id="rect1"
   width="1614.8052"
   height="914.50702"
   x="-38.447742"
   y="-21.970139" /><g
   inkscape:groupmode="layer"
   id="layer1"
   inkscape:label="Layer 1"
   style="display:inline" /><g
   id="g1"
   transform="translate(-700.99219,-36.603249)"
   style="display:none"><path
     id="rect11"
     style="fill:none;stroke:#0071bc;stroke-width:2.56651;stroke-linecap:round;stroke-linejoin:round;stroke-miterlimit:10"
     d="m 1197.6918,264.17279 11.4112,6.58837 -101.4792,175.76725 -11.4111,-6.58833 z" /><circle
     style="fill:none;stroke:#000000;stroke-width:3;stroke-linecap:round;stroke-linejoin:round;stroke-miterlimit:10;stroke-opacity:1"
     cx="1090.0944"
     cy="438.0629"
     r="212.5"
     id="circle12" /><circle
     style="fill:none;stroke:#000000;stroke-width:3;stroke-linecap:round;stroke-linejoin:round;stroke-miterlimit:10;stroke-opacity:1"
     cx="1111.89"
     cy="358.96539"
     r="131"
     id="circle13" /><circle
     style="fill:none;stroke:#000000;stroke-width:3;stroke-linecap:round;stroke-linejoin:round;stroke-miterlimit:10;stroke-opacity:1"
     cx="1111.89"
     cy="435.58832"
     r="212.5"
     id="circle16" /><circle
     style="fill:none;stroke:#000000;stroke-width:3;stroke-linecap:round;stroke-linejoin:round;stroke-miterlimit:10;stroke-opacity:1"
     cx="1111.89"
     cy="459.58832"
     r="212.5"
     id="circle17" /><rect
     x="997.8941"
     y="-495.43695"
     style="fill:none;fill-opacity:1;stroke:#0071bc;stroke-width:1.59528;stroke-linecap:round;stroke-linejoin:round;stroke-miterlimit:10;stroke-opacity:1"
     width="101.3969"
     height="27.851328"
     id="rect19"
     transform="rotate(45)" /></g><path
   d="m 485.1386,292.21694 c 0.0752,132.61944 109.71536,239.13354 242.20583,239.22005 13.96096,-0.13647 27.88433,-1.46516 41.61359,-3.97087 -5.57509,0.58662 -11.16918,0.98192 -16.77195,1.1851 C 636.00967,528.37132 545.12191,440.33688 541.3822,295.01548 544.49495,133.90211 695.9251,48.822791 823.84152,88.018024 c 9.98999,3.061019 14.55767,16.004976 9.38498,32.506976 -4.11188,11.21499 -9.48029,21.94082 -16.00524,31.97766 l -64.3897,110.15258 -29.16408,-27.97879 c -13.27461,-12.73511 -31.99745,-18.28641 -50.17882,-14.87796 l -7.51497,1.40882 70.42663,69.55849 4.15624,4.10501 16.43126,-28.11056 85.45411,-146.19006 c 2.24924,-3.84789 4.09059,-7.91468 5.4948,-12.1358 1.26063,-3.78954 2.47177,-12.348785 -0.58005,-17.831301 -1.22903,-2.207889 -2.83158,-4.222323 -4.7642,-5.947063 -0.34844,-0.295871 -0.70634,-0.580254 -1.05739,-0.87288 C 763.30647,18.581309 485.74932,55.762048 485.1385,292.21694 Z"
   style="fill:#f77f00;fill-opacity:1;stroke-width:3.39823;stroke-linecap:round;stroke-linejoin:round;stroke-miterlimit:10"
   id="path17"
   sodipodi:nodetypes="ccccccccccccccccccccsc"
   inkscape:export-filename="path17(orange).png"
   inkscape:export-xdpi="300"
   inkscape:export-ydpi="300" /><text
   xml:space="preserve"
   style="font-size:566.667px;line-height:1;font-family:PhosphateRRSolid;-inkscape-font-specification:PhosphateRRSolid;text-align:center;letter-spacing:5px;word-spacing:0px;text-anchor:middle;display:inline;fill:#f77f00;fill-opacity:1;stroke:none;stroke-width:5;stroke-linejoin:round;stroke-opacity:1;paint-order:stroke fill markers"
   x="71.500252"
   y="85.436562"
   id="text17"><tspan
     sodipodi:role="line"
     id="tspan17"
     x="0"
     y="0" /></text><g
   id="g2"
   transform="translate(-170.78455,244.28675)"><path
     style="font-size:261.972px;line-height:1;font-family:Coolvetica;-inkscape-font-specification:Coolvetica;text-align:center;letter-spacing:2.31151px;word-spacing:0px;text-anchor:middle;fill:#f77f00;fill-opacity:1;stroke:none;stroke-width:16.712;stroke-linejoin:round;stroke-dasharray:none;stroke-opacity:1;paint-order:markers stroke fill"
     inkscape:path-effect="#path-effect13"
     inkscape:original-d="m 1125.3848,402.04551 c 1.3099,-17.81409 12.5747,-28.29297 26.1972,-28.29297 13.3606,0 25.9353,9.16902 26.4592,28.29297 z m 87.7606,21.48171 c 0,-51.08454 -20.9577,-76.7578 -60.5155,-76.7578 -39.5577,0 -62.3493,25.67326 -62.3493,65.493 0,46.63101 21.4817,70.20849 64.4451,70.20849 27.5071,0 48.7268,-14.9324 56.5859,-41.39157 h -35.1042 c -2.3577,8.90705 -12.0507,14.40846 -23.0535,14.40846 -16.7662,0 -27.7691,-12.57466 -28.817,-31.96058 z"
     d="m 1152.6309,351.68359 c 35.0002,0 54.2544,21.33292 55.5273,66.92969 h -89.0078 l 0.2793,5.17969 c 1.1652,21.55697 13.8875,36.60937 33.7246,36.60937 11.2157,0 22.0206,-5.122 26.4414,-14.4082 h 24.7109 c -8.5034,20.21053 -26.5996,31.5625 -49.58,31.5625 -40.0422,0 -59.5313,-21.11617 -59.5313,-65.29492 0,-37.24167 20.801,-60.57813 57.4356,-60.57813 z m -1.0489,17.1543 c -16.4571,0 -29.6294,12.88024 -31.0976,32.84766 l -0.3867,5.27343 h 62.9941 l -0.1387,-5.04882 c -0.5961,-21.75938 -15.2006,-33.07227 -31.3711,-33.07227 z"
     id="path11"
     transform="translate(-60)" /><path
     style="font-size:261.972px;line-height:1;font-family:Coolvetica;-inkscape-font-specification:Coolvetica;text-align:center;letter-spacing:2.31151px;word-spacing:0px;text-anchor:middle;fill:#f77f00;fill-opacity:1;stroke:none;stroke-width:16.712;stroke-linejoin:round;stroke-dasharray:none;stroke-opacity:1;paint-order:markers stroke fill"
     inkscape:path-effect="#path-effect11"
     inkscape:original-d="M 1075.3946,334.71871 V 303.0201 h -34.0564 v 31.69861 z"
     d="m 1046.252,307.93359 h 24.2285 v 21.8711 h -24.2285 z"
     id="path9"
     transform="translate(-46)" /><path
     style="font-size:261.972px;line-height:1;font-family:Coolvetica;-inkscape-font-specification:Coolvetica;text-align:center;letter-spacing:2.31151px;word-spacing:0px;text-anchor:middle;fill:#f77f00;fill-opacity:1;stroke:none;stroke-width:16.712;stroke-linejoin:round;stroke-dasharray:none;stroke-opacity:1;paint-order:markers stroke fill"
     inkscape:path-effect="#path-effect9"
     inkscape:original-d="M 1075.3946,479.06528 V 350.17506 h -34.0564 v 128.89022 z"
     d="m 1046.252,355.08984 h 24.2285 v 119.06055 h -24.2285 z"
     id="path7"
     transform="translate(-46)" /><path
     style="font-size:261.972px;line-height:1;font-family:Coolvetica;-inkscape-font-specification:Coolvetica;text-align:center;letter-spacing:2.31151px;word-spacing:0px;text-anchor:middle;fill:#f77f00;fill-opacity:1;stroke:none;stroke-width:16.712;stroke-linejoin:round;stroke-dasharray:none;stroke-opacity:1;paint-order:markers stroke fill"
     inkscape:path-effect="#path-effect7"
     inkscape:original-d="m 982.70287,479.06528 46.36903,-128.89022 h -35.89015 l -27.24509,85.1409 -26.98311,-85.1409 h -37.98594 l 46.10707,128.89022 z"
     d="m 907.94336,355.08984 h 27.41406 l 30.5586,96.41797 30.85156,-96.41797 H 1022.082 L 979.25,474.15039 h -28.71484 z"
     id="path5"
     transform="translate(-34)"
     inkscape:export-filename="path5.png"
     inkscape:export-xdpi="300"
     inkscape:export-ydpi="300" /><path
     style="font-size:261.972px;line-height:1;font-family:Coolvetica;-inkscape-font-specification:Coolvetica;text-align:center;letter-spacing:2.31151px;word-spacing:0px;text-anchor:middle;fill:#f77f00;fill-opacity:1;stroke:none;stroke-width:16.712;stroke-linejoin:round;stroke-dasharray:none;stroke-opacity:1;paint-order:markers stroke fill"
     inkscape:path-effect="#path-effect5"
     inkscape:original-d="m 814.03919,402.04551 c 1.30986,-17.81409 12.57466,-28.29297 26.1972,-28.29297 13.36057,0 25.93523,9.16902 26.45917,28.29297 z m 87.76062,21.48171 c 0,-51.08454 -20.95776,-76.7578 -60.51553,-76.7578 -39.55777,0 -62.34933,25.67326 -62.34933,65.493 0,46.63101 21.4817,70.20849 64.4451,70.20849 27.50706,0 48.72679,-14.9324 56.58595,-41.39157 h -35.10424 c -2.35775,8.90705 -12.05071,14.40846 -23.05354,14.40846 -16.7662,0 -27.76903,-12.57466 -28.81692,-31.96058 z"
     d="m 841.28516,351.68359 c 35.00018,0 54.25623,21.33309 55.52929,66.92969 h -89.00781 l 0.2793,5.17969 c 1.16522,21.55657 13.88555,36.60937 33.72265,36.60937 11.21571,0 22.02062,-5.12203 26.44141,-14.4082 h 24.71094 c -8.50347,20.21054 -26.59967,31.5625 -49.58008,31.5625 -40.04214,0 -59.53125,-21.11617 -59.53125,-65.29492 0,-37.24168 20.80089,-60.57813 57.43555,-60.57813 z m -1.04883,17.1543 c -16.45715,0 -29.62946,12.88023 -31.09766,32.84766 l -0.38672,5.27343 h 62.99414 l -0.13867,-5.04882 c -0.59614,-21.75937 -15.20062,-33.07227 -31.37109,-33.07227 z"
     id="path3"
     transform="translate(-22)" /><path
     style="font-size:261.972px;line-height:1;font-family:Coolvetica;-inkscape-font-specification:Coolvetica;text-align:center;letter-spacing:2.31151px;word-spacing:0px;text-anchor:middle;fill:#f77f00;fill-opacity:1;stroke:none;stroke-width:16.712;stroke-linejoin:round;stroke-dasharray:none;stroke-opacity:1;paint-order:markers stroke fill"
     inkscape:path-effect="#path-effect3"
     inkscape:original-d="m 733.92223,427.71877 c 0,15.98029 -6.28732,25.14931 -19.90987,25.14931 -13.88451,0 -19.6479,-9.43099 -19.6479,-25.67326 v -52.91834 h 71.25638 v -24.10142 h -71.25638 v -34.84227 h -33.53241 v 115.26767 c 0,27.76903 14.9324,51.87045 52.65637,51.87045 36.4141,0 52.13242,-24.36339 52.13242,-51.60848 v -36.67608 h -31.69861 z"
     d="m 665.74609,320.24609 h 23.70508 v 34.84375 h 71.25586 v 14.27344 h -71.25586 v 57.83203 c 0,18.13051 7.0611,30.58594 24.56055,30.58594 16.92928,0 24.82422,-12.14903 24.82422,-30.0625 v -28.61914 h 21.87109 v 31.76367 c 0,24.64652 -13.81805,46.69336 -47.21875,46.69336 -34.84626,0 -47.74219,-21.61 -47.74219,-46.95703 z"
     id="path1"
     transform="matrix(1.0127137,0,0,1.0127137,-19.067753,-5.0715146)" /><path
     style="font-size:261.972px;line-height:1;font-family:Coolvetica;-inkscape-font-specification:Coolvetica;text-align:center;letter-spacing:2.31151px;word-spacing:0px;text-anchor:middle;fill:#f77f00;fill-opacity:1;stroke:none;stroke-width:16.712;stroke-linejoin:round;stroke-dasharray:none;stroke-opacity:1;paint-order:markers stroke fill"
     inkscape:path-effect="#path-effect1"
     inkscape:original-d="m 646.7319,389.20889 c -1.8338,-27.76903 -18.60001,-42.43947 -55.80003,-42.43947 -39.2958,0 -54.2282,16.50424 -54.2282,38.24791 0,11.52677 4.19155,21.48171 16.24226,29.07889 9.16902,5.76339 21.21973,9.431 42.96341,14.67044 11.00282,2.61972 20.69579,5.50141 20.69579,14.67043 0,9.69296 -10.74086,13.36057 -22.79157,13.36057 -16.50423,0 -26.72114,-7.07325 -26.72114,-19.12396 h -35.10425 c 0.52395,26.1972 22.5296,44.79721 62.08737,44.79721 36.67607,0 56.32397,-15.98029 56.32397,-42.70143 0,-16.76621 -7.59719,-25.67326 -21.21973,-31.17467 -9.95493,-3.92958 -23.83945,-6.81127 -38.50988,-11.00282 -13.88452,-3.92958 -20.95776,-7.07324 -20.95776,-14.67043 0,-7.59719 7.33522,-10.74085 20.17184,-10.74085 15.45635,0 22.26762,4.45352 24.10143,17.02818 z"
     d="m 590.93164,351.68359 c 32.52707,0 47.05108,11.25952 50.31055,32.61133 h -23.26758 c -3.29683,-12.46417 -12.40778,-17.02734 -28.08984,-17.02734 -13.88925,0 -25.08594,3.90614 -25.08594,15.65429 0,11.40889 10.34884,15.384 24.5332,19.39844 14.76284,4.21737 28.41426,7.04919 38.02149,10.83789 11.93469,4.82352 18.13281,12.07755 18.13281,26.61133 0,23.4093 -16.6966,37.78711 -51.41016,37.78711 -34.81968,0 -53.74942,-14.69792 -56.74805,-34.96875 h 25.36329 c 2.5562,12.38715 14.89972,19.12305 31.12304,19.12305 13.17185,0 27.70508,-4.49729 27.70508,-18.27344 0,-13.06001 -13.28173,-16.78564 -24.45898,-19.44727 l -0.0117,-0.002 c -21.65625,-5.21865 -32.95579,-8.68923 -41.48242,-14.04883 -10.54683,-6.64908 -13.94922,-14.88402 -13.94922,-24.92187 0,-18.36928 12.08241,-33.33399 49.31445,-33.33399 z"
     id="text1"
     inkscape:export-filename="path5(orange).png"
     inkscape:export-xdpi="300"
     inkscape:export-ydpi="300" /></g></svg>
